<svg id="svg" xmlns="http://www.w3.org/2000/svg" xmlns:xlink="http://www.w3.org/1999/xlink" width="400" height="400" viewBox="0, 0, 400,400"><g id="svgg"><path id="path0" d="M162.024 3.200 C 161.341 3.756,160.734 4.319,160.677 4.450 C 160.620 4.580,160.374 4.688,160.130 4.688 C 159.887 4.688,159.688 4.823,159.688 4.989 C 159.688 5.155,159.285 5.753,158.792 6.317 C 156.367 9.097,156.417 8.776,156.311 22.329 C 156.162 41.364,156.448 43.588,159.490 47.031 C 161.968 49.837,165.261 51.099,170.985 51.436 L 174.626 51.651 174.459 57.935 C 174.367 61.391,174.261 64.257,174.222 64.304 C 174.184 64.351,173.324 64.544,172.311 64.734 C 171.298 64.924,170.188 65.192,169.844 65.329 C 169.129 65.614,168.288 65.803,165.000 66.421 C 162.525 66.885,160.157 67.441,159.375 67.741 C 158.810 67.957,156.611 68.504,153.438 69.217 C 152.148 69.507,150.953 69.858,150.781 69.999 C 150.609 70.139,149.625 70.495,148.594 70.789 C 147.563 71.084,146.578 71.431,146.406 71.559 C 146.234 71.688,145.531 71.894,144.844 72.017 C 144.156 72.140,143.102 72.505,142.500 72.827 C 141.898 73.149,140.815 73.563,140.091 73.746 C 139.368 73.930,138.692 74.216,138.589 74.383 C 138.485 74.551,138.076 74.688,137.680 74.688 C 137.284 74.688,136.624 74.947,136.214 75.265 C 135.804 75.582,135.052 75.944,134.542 76.069 C 134.032 76.194,132.978 76.583,132.198 76.934 C 128.388 78.649,126.625 79.485,125.625 80.048 C 125.023 80.387,123.758 81.029,122.813 81.474 C 121.867 81.919,120.696 82.560,120.210 82.899 C 119.724 83.238,118.529 83.921,117.554 84.417 C 115.520 85.452,113.732 86.552,110.059 89.030 C 108.631 89.993,106.611 91.291,105.571 91.914 C 104.530 92.537,103.589 93.180,103.480 93.341 C 103.371 93.503,102.592 94.104,101.749 94.678 C 100.906 95.252,99.992 95.913,99.718 96.147 C 97.273 98.233,93.994 100.625,93.580 100.625 C 93.148 100.625,90.553 98.383,88.788 96.486 C 88.509 96.186,87.895 95.565,87.422 95.106 C 86.376 94.091,86.365 93.876,87.294 92.494 C 90.321 87.995,90.092 80.837,86.801 77.067 C 82.348 71.965,71.972 62.156,69.693 60.891 C 69.088 60.556,68.242 60.089,67.813 59.853 C 65.391 58.524,60.812 58.780,58.786 60.357 C 58.376 60.676,57.904 60.938,57.737 60.938 C 56.730 60.938,39.107 77.951,32.020 85.766 C 30.823 87.086,29.138 88.914,28.276 89.830 C 23.177 95.241,23.454 101.495,29.063 107.561 C 33.284 112.128,41.161 120.018,42.918 121.440 C 46.525 124.360,53.213 124.617,57.619 122.005 C 59.765 120.733,59.215 120.476,63.340 124.678 C 66.906 128.310,66.887 127.926,63.741 132.656 C 62.712 134.203,61.700 135.820,61.492 136.250 C 61.284 136.680,60.653 137.608,60.088 138.313 C 59.524 139.019,59.063 139.708,59.063 139.846 C 59.063 139.984,58.731 140.532,58.325 141.064 C 57.919 141.596,57.193 142.805,56.710 143.750 C 56.227 144.695,55.649 145.686,55.425 145.952 C 55.016 146.438,54.787 146.848,52.034 152.031 C 51.213 153.578,50.297 155.195,49.999 155.625 C 49.701 156.055,49.350 156.758,49.219 157.188 C 49.088 157.617,48.487 158.953,47.884 160.156 C 47.281 161.359,46.542 163.047,46.242 163.906 C 45.941 164.766,45.269 166.383,44.747 167.500 C 44.226 168.617,43.697 169.953,43.571 170.469 C 43.446 170.984,43.026 172.109,42.637 172.969 C 41.689 175.068,40.625 178.275,40.625 179.034 C 40.625 179.373,40.506 179.724,40.362 179.813 C 40.063 179.998,38.930 183.683,38.093 187.188 C 37.785 188.477,37.310 190.445,37.036 191.563 C 36.067 195.529,35.632 197.686,35.325 200.047 C 35.155 201.362,34.872 202.768,34.696 203.172 C 34.359 203.950,33.586 210.543,33.123 216.604 C 32.775 221.155,32.782 237.484,33.134 241.693 C 33.810 249.780,34.180 252.698,34.940 255.938 C 35.122 256.711,35.500 258.750,35.780 260.469 C 36.716 266.208,36.877 267.027,37.232 267.813 C 37.426 268.242,37.844 269.789,38.161 271.250 C 38.898 274.651,39.526 276.893,40.104 278.189 C 40.356 278.755,40.723 279.922,40.919 280.781 C 41.721 284.296,47.479 298.716,49.841 303.125 C 50.071 303.555,50.829 305.031,51.526 306.406 C 52.222 307.781,53.356 309.891,54.045 311.094 C 54.734 312.297,55.601 313.844,55.971 314.531 C 56.342 315.219,57.138 316.555,57.741 317.500 C 61.040 322.670,61.945 324.049,62.972 325.469 C 71.726 337.569,79.752 346.547,89.063 354.654 C 90.695 356.076,92.383 357.560,92.813 357.951 C 93.520 358.596,95.110 359.854,98.847 362.724 C 102.215 365.310,111.313 371.459,114.375 373.218 C 124.166 378.842,135.190 384.075,141.875 386.274 C 142.820 386.584,144.763 387.268,146.192 387.793 C 147.621 388.319,149.191 388.819,149.681 388.905 C 150.171 388.991,151.182 389.321,151.927 389.638 C 153.067 390.124,155.077 390.684,158.281 391.409 C 158.625 391.487,160.186 391.895,161.751 392.317 C 163.315 392.738,165.266 393.162,166.085 393.258 C 166.904 393.355,168.155 393.590,168.865 393.782 C 169.575 393.974,170.930 394.253,171.875 394.402 C 172.820 394.552,174.719 394.913,176.094 395.203 C 178.921 395.801,217.551 396.165,220.938 395.626 C 221.883 395.475,223.289 395.257,224.063 395.141 C 224.836 395.025,226.453 394.733,227.656 394.490 C 228.859 394.248,230.320 393.979,230.903 393.892 C 231.485 393.805,232.057 393.674,232.174 393.602 C 232.291 393.530,233.081 393.382,233.928 393.275 C 235.709 393.048,237.385 392.649,239.375 391.978 C 240.148 391.717,241.063 391.461,241.406 391.410 C 243.011 391.172,247.472 389.982,248.594 389.492 C 249.281 389.192,249.936 388.968,250.049 388.995 C 250.303 389.054,255.476 387.317,255.990 386.999 C 256.196 386.872,257.640 386.312,259.198 385.756 C 262.382 384.620,268.645 382.025,269.181 381.620 C 269.373 381.474,270.023 381.167,270.625 380.937 C 271.890 380.453,280.689 375.847,283.906 373.983 C 288.713 371.199,298.023 364.986,299.825 363.359 C 300.158 363.059,300.536 362.813,300.665 362.813 C 300.794 362.812,301.528 362.285,302.295 361.641 C 303.063 360.996,304.653 359.696,305.830 358.752 C 309.381 355.902,315.908 349.968,319.102 346.685 C 323.416 342.252,330.628 334.080,330.905 333.312 C 330.973 333.123,331.205 332.864,331.420 332.737 C 331.635 332.609,332.321 331.765,332.945 330.862 C 333.568 329.958,334.704 328.375,335.469 327.344 C 339.171 322.353,346.250 311.054,346.250 310.136 C 346.250 309.997,346.507 309.594,346.820 309.239 C 347.134 308.884,347.785 307.680,348.267 306.563 C 348.749 305.445,349.320 304.320,349.535 304.063 C 350.101 303.386,351.563 300.181,351.563 299.617 C 351.563 299.354,351.768 298.968,352.019 298.760 C 352.270 298.552,352.567 298.077,352.679 297.706 C 352.791 297.335,353.071 296.609,353.302 296.094 C 353.533 295.578,353.926 294.594,354.176 293.906 C 356.097 288.616,356.987 286.293,357.363 285.588 C 357.602 285.139,358.029 283.943,358.310 282.932 C 358.963 280.583,359.518 278.762,359.820 277.969 C 360.487 276.220,360.665 275.621,361.074 273.750 C 361.591 271.383,362.975 265.994,363.240 265.313 C 363.340 265.055,363.629 263.508,363.882 261.875 C 364.135 260.242,364.544 257.922,364.791 256.719 C 367.179 245.063,367.643 217.492,365.634 206.623 C 365.457 205.667,365.313 204.419,365.313 203.849 C 365.313 203.279,365.199 202.813,365.061 202.813 C 364.923 202.813,364.775 202.225,364.733 201.507 C 364.690 200.789,364.586 200.089,364.502 199.952 C 364.417 199.816,364.088 198.188,363.771 196.336 C 363.454 194.484,362.816 191.563,362.354 189.844 C 361.892 188.125,361.384 186.086,361.224 185.313 C 361.065 184.539,360.590 182.922,360.169 181.719 C 359.748 180.516,359.044 178.277,358.603 176.745 C 358.163 175.212,357.663 173.790,357.492 173.584 C 357.321 173.378,356.891 172.312,356.537 171.214 C 355.958 169.422,355.103 167.321,353.436 163.594 C 353.129 162.906,352.787 162.040,352.677 161.669 C 352.566 161.298,352.270 160.823,352.019 160.615 C 351.768 160.407,351.563 159.989,351.563 159.688 C 351.563 159.179,347.476 150.891,346.848 150.127 C 346.694 149.940,346.171 149.026,345.687 148.096 C 344.528 145.875,340.161 138.724,339.597 138.125 C 339.355 137.867,338.760 136.953,338.276 136.094 C 337.792 135.234,337.156 134.250,336.862 133.906 C 335.871 132.746,333.390 128.142,333.585 127.826 C 334.014 127.132,340.154 120.938,340.413 120.938 C 340.565 120.937,341.307 121.354,342.060 121.862 C 345.405 124.119,352.463 124.426,355.455 122.444 C 359.190 119.970,371.740 107.203,373.658 103.926 C 374.726 102.102,374.828 101.593,374.823 98.125 C 374.816 94.214,374.259 92.455,372.617 91.164 C 372.209 90.842,371.875 90.380,371.875 90.135 C 371.875 89.415,348.147 65.799,344.219 62.610 C 340.169 59.322,335.260 58.148,332.344 59.769 C 331.828 60.056,330.901 60.544,330.284 60.854 C 327.501 62.252,313.547 75.925,311.542 79.219 C 309.757 82.152,310.513 89.250,313.035 93.225 L 313.594 94.105 310.058 97.533 L 306.522 100.961 304.902 99.801 C 304.010 99.163,303.000 98.393,302.656 98.091 C 301.922 97.444,300.505 96.408,298.125 94.775 C 297.180 94.126,296.331 93.495,296.239 93.372 C 295.785 92.766,284.823 85.776,282.500 84.611 C 281.727 84.224,281.023 83.817,280.938 83.707 C 280.695 83.398,278.662 82.202,277.999 81.978 C 277.672 81.868,276.688 81.393,275.812 80.923 C 272.142 78.956,266.305 76.250,265.729 76.250 C 265.581 76.250,264.899 75.948,264.214 75.579 C 263.529 75.210,261.914 74.529,260.625 74.067 C 259.336 73.605,257.789 73.003,257.188 72.729 C 255.997 72.188,247.894 69.604,245.625 69.042 C 244.852 68.850,243.516 68.519,242.656 68.307 C 241.797 68.094,240.883 67.839,240.625 67.740 C 239.302 67.231,238.660 67.070,235.781 66.522 C 234.063 66.195,232.094 65.798,231.406 65.639 C 230.719 65.481,229.192 65.151,228.014 64.906 C 225.279 64.337,225.353 64.510,225.330 58.605 C 225.319 55.849,225.228 53.155,225.128 52.620 L 224.946 51.646 229.090 51.417 C 231.369 51.290,233.455 51.078,233.726 50.945 C 233.997 50.811,234.769 50.526,235.442 50.312 C 238.225 49.426,240.772 47.122,242.182 44.219 C 244.403 39.643,243.713 7.561,241.374 6.663 C 241.134 6.571,240.938 6.306,240.938 6.074 C 240.938 5.842,239.973 4.872,238.794 3.920 L 236.650 2.188 199.959 2.188 L 163.267 2.188 162.024 3.200 M224.063 26.250 L 224.063 34.063 199.375 34.063 L 174.688 34.063 174.688 26.250 L 174.688 18.438 199.375 18.438 L 224.063 18.438 224.063 26.250 M211.563 57.348 L 211.563 63.133 200.078 63.051 L 188.594 62.969 188.509 57.266 L 188.423 51.563 199.993 51.563 L 211.563 51.563 211.563 57.348 M349.219 85.836 C 355.234 91.823,360.342 96.958,360.569 97.247 C 361.190 98.039,360.809 98.531,355.742 103.490 C 353.226 105.953,350.811 108.355,350.375 108.828 C 349.940 109.301,349.427 109.688,349.234 109.688 C 348.743 109.688,324.688 85.675,324.688 85.185 C 324.688 84.965,327.316 82.160,330.528 78.952 L 336.368 73.118 337.324 74.034 C 337.851 74.538,343.203 79.849,349.219 85.836 M69.540 79.113 C 72.715 82.235,75.313 84.923,75.313 85.088 C 75.313 85.253,69.786 90.929,63.032 97.701 L 50.751 110.014 44.743 104.013 C 41.439 100.712,38.774 97.902,38.821 97.769 C 38.907 97.525,45.404 90.900,46.464 89.974 C 46.776 89.702,47.402 89.070,47.856 88.568 C 48.310 88.067,49.575 86.782,50.669 85.713 C 51.762 84.645,52.797 83.624,52.969 83.444 C 54.852 81.479,63.331 73.438,63.519 73.438 C 63.656 73.438,66.365 75.991,69.540 79.113 M211.094 82.052 C 212.297 82.167,213.563 82.248,213.906 82.234 C 214.250 82.220,214.988 82.333,215.547 82.485 C 216.189 82.660,216.563 82.650,216.563 82.456 C 216.563 82.288,216.736 82.258,216.948 82.389 C 217.314 82.615,219.315 82.836,220.877 82.823 C 221.361 82.819,221.525 82.944,221.378 83.205 C 221.218 83.488,221.258 83.502,221.524 83.258 C 221.985 82.835,223.819 83.073,223.542 83.521 C 223.430 83.702,223.491 83.754,223.679 83.638 C 223.865 83.523,225.961 83.861,228.337 84.389 C 230.713 84.918,233.148 85.402,233.750 85.464 C 234.352 85.527,234.844 85.600,234.844 85.627 C 234.844 85.654,235.263 85.744,235.775 85.827 C 236.288 85.910,236.780 86.075,236.869 86.192 C 236.958 86.310,237.313 86.450,237.656 86.503 C 238.000 86.557,239.406 86.932,240.781 87.337 C 242.156 87.741,243.906 88.239,244.669 88.442 C 245.432 88.645,246.417 88.961,246.857 89.145 C 247.296 89.329,247.762 89.508,247.891 89.544 C 248.020 89.580,248.195 89.645,248.281 89.688 C 248.367 89.730,248.566 89.783,248.724 89.805 C 248.882 89.826,249.116 89.949,249.245 90.078 C 249.374 90.207,249.649 90.313,249.858 90.313 C 250.066 90.313,250.781 90.550,251.446 90.839 C 252.112 91.129,252.788 91.331,252.949 91.289 C 253.109 91.246,253.812 91.492,254.511 91.835 C 255.849 92.491,258.797 93.823,259.063 93.890 C 260.641 94.292,261.171 94.487,261.563 94.810 C 261.820 95.022,263.086 95.670,264.375 96.249 C 265.664 96.829,267.393 97.699,268.217 98.183 C 269.041 98.667,269.920 99.063,270.170 99.063 C 270.420 99.063,270.625 99.203,270.625 99.375 C 270.625 99.547,270.777 99.688,270.963 99.688 C 271.148 99.688,272.042 100.180,272.948 100.781 C 273.854 101.383,274.794 101.875,275.036 101.875 C 275.277 101.875,275.860 102.232,276.331 102.669 C 276.802 103.106,277.188 103.391,277.188 103.303 C 277.188 103.093,279.368 104.520,280.126 105.227 C 280.534 105.606,280.640 105.634,280.463 105.313 C 280.232 104.893,281.433 105.728,281.875 106.294 C 281.961 106.404,282.594 106.788,283.281 107.146 C 284.429 107.745,286.799 109.514,288.251 110.856 C 288.671 111.244,288.772 111.268,288.596 110.938 C 288.458 110.680,288.900 110.996,289.577 111.641 C 290.254 112.285,290.938 112.813,291.097 112.813 C 291.256 112.813,292.157 113.551,293.098 114.453 C 294.040 115.355,294.607 115.813,294.360 115.469 C 294.112 115.125,294.554 115.423,295.341 116.130 C 296.127 116.838,297.111 117.714,297.526 118.077 C 298.385 118.828,300.095 120.383,303.730 123.719 C 305.116 124.991,306.250 126.222,306.250 126.454 C 306.250 126.685,306.444 126.875,306.682 126.875 C 306.919 126.875,307.509 127.402,307.993 128.047 C 308.476 128.691,309.039 129.322,309.243 129.448 C 309.665 129.709,315.000 135.821,315.000 136.044 C 315.000 136.124,315.436 136.683,315.970 137.285 C 316.503 137.888,316.952 138.499,316.967 138.643 C 316.982 138.788,317.450 139.398,318.006 140.000 C 318.563 140.602,319.033 141.195,319.050 141.319 C 319.067 141.443,319.495 141.998,320.001 142.552 C 320.507 143.105,320.869 143.610,320.806 143.674 C 320.742 143.737,321.025 144.149,321.433 144.590 C 321.842 145.031,322.086 145.549,321.975 145.742 C 321.865 145.936,321.892 145.988,322.035 145.858 C 322.363 145.560,324.720 149.070,324.466 149.480 C 324.363 149.647,324.420 149.696,324.594 149.589 C 324.895 149.403,325.793 150.841,325.680 151.328 C 325.650 151.457,325.757 151.563,325.918 151.563 C 326.216 151.563,327.628 153.862,327.537 154.200 C 327.510 154.303,327.766 154.687,328.108 155.053 C 328.449 155.420,328.655 155.839,328.565 155.985 C 328.474 156.131,328.518 156.250,328.660 156.250 C 328.971 156.250,330.190 158.452,330.078 158.811 C 330.035 158.949,330.131 159.063,330.292 159.063 C 331.046 159.063,337.334 172.981,340.104 180.781 C 342.747 188.224,346.522 202.990,346.148 204.420 C 346.069 204.723,346.129 205.012,346.283 205.063 C 346.436 205.114,346.620 205.930,346.690 206.875 C 346.761 207.820,346.894 208.805,346.986 209.063 C 347.486 210.459,348.204 219.937,348.349 227.060 C 348.793 248.737,344.776 269.234,336.215 288.969 C 334.216 293.580,330.040 301.875,329.719 301.875 C 329.587 301.875,329.479 302.056,329.479 302.278 C 329.479 302.858,327.206 306.693,323.975 311.563 C 311.643 330.148,297.675 343.691,277.500 356.625 C 268.657 362.294,253.531 368.936,241.279 372.530 C 233.963 374.676,220.331 377.464,218.701 377.147 C 218.470 377.102,218.000 377.158,217.656 377.271 C 216.268 377.729,205.545 378.437,200.062 378.434 C 157.371 378.406,116.731 359.885,88.302 327.500 C 83.842 322.420,78.633 315.533,78.985 315.182 C 79.085 315.082,79.008 315.000,78.815 315.000 C 78.193 315.000,69.255 300.715,68.978 299.277 C 68.938 299.073,68.819 298.836,68.712 298.750 C 68.330 298.443,66.247 294.062,66.480 294.058 C 66.612 294.055,66.557 293.950,66.359 293.823 C 65.962 293.569,63.056 287.187,63.337 287.188 C 63.435 287.188,63.362 287.005,63.177 286.781 C 61.233 284.439,54.358 260.870,53.998 255.313 C 53.947 254.539,53.812 253.834,53.696 253.746 C 51.826 252.325,51.265 215.294,53.043 210.625 C 53.141 210.367,53.193 209.926,53.159 209.645 C 53.082 209.006,54.284 201.841,54.751 200.156 C 54.942 199.469,55.124 198.695,55.157 198.438 C 55.379 196.675,56.837 190.807,57.409 189.375 C 57.512 189.117,57.650 188.589,57.715 188.201 C 57.964 186.731,60.705 178.896,61.047 178.677 C 61.245 178.550,61.302 178.445,61.175 178.442 C 60.899 178.437,62.360 174.452,62.857 173.853 C 63.046 173.624,63.125 173.438,63.030 173.438 C 62.727 173.438,65.287 167.809,68.183 162.109 C 69.733 159.059,71.136 156.563,71.300 156.563 C 71.465 156.562,71.526 156.443,71.435 156.297 C 71.345 156.151,71.513 155.759,71.808 155.426 C 72.103 155.092,72.390 154.614,72.446 154.363 C 72.610 153.637,73.773 151.875,74.088 151.875 C 74.246 151.875,74.375 151.664,74.375 151.406 C 74.375 151.148,74.621 150.680,74.922 150.365 C 75.223 150.049,75.511 149.605,75.564 149.377 C 75.706 148.754,77.564 146.250,77.884 146.250 C 78.037 146.250,78.086 146.127,77.993 145.977 C 77.900 145.827,78.158 145.343,78.567 144.902 C 78.975 144.462,79.258 144.049,79.194 143.986 C 79.131 143.923,79.493 143.418,79.999 142.864 C 80.505 142.310,80.901 141.770,80.881 141.663 C 80.860 141.556,81.392 140.905,82.062 140.217 C 82.733 139.528,83.073 139.085,82.818 139.233 C 82.274 139.549,83.751 137.678,87.639 133.125 C 91.262 128.884,101.556 118.709,101.967 118.963 C 102.147 119.075,102.188 119.004,102.062 118.800 C 101.929 118.585,102.161 118.294,102.639 118.076 C 103.078 117.876,103.438 117.610,103.438 117.484 C 103.438 117.210,109.042 112.645,109.330 112.684 C 109.441 112.699,110.094 112.173,110.781 111.515 C 111.469 110.857,112.147 110.318,112.289 110.316 C 112.431 110.314,113.312 109.715,114.248 108.984 C 115.183 108.254,116.029 107.705,116.128 107.765 C 116.227 107.825,116.682 107.534,117.139 107.119 C 117.980 106.353,119.706 105.179,120.010 105.164 C 120.102 105.160,120.875 104.654,121.729 104.041 C 122.583 103.428,123.422 102.883,123.594 102.830 C 123.766 102.778,124.242 102.471,124.652 102.149 C 125.061 101.826,125.555 101.563,125.749 101.563 C 125.943 101.563,126.857 101.054,127.779 100.433 C 128.701 99.812,129.357 99.496,129.236 99.730 C 129.115 99.964,129.217 99.911,129.463 99.611 C 129.709 99.312,130.483 98.864,131.183 98.617 C 131.884 98.370,132.759 97.866,133.128 97.497 C 133.497 97.128,133.989 96.900,134.223 96.990 C 134.456 97.079,134.694 97.012,134.751 96.840 C 134.808 96.669,135.065 96.498,135.321 96.460 C 135.577 96.423,136.418 96.056,137.190 95.646 C 139.936 94.189,140.304 94.024,140.929 93.977 C 141.278 93.951,141.563 93.819,141.563 93.683 C 141.563 93.548,141.747 93.438,141.973 93.438 C 142.198 93.438,143.007 93.134,143.769 92.764 C 144.532 92.393,145.332 92.088,145.547 92.086 C 145.762 92.085,145.938 91.981,145.938 91.856 C 145.938 91.732,146.156 91.546,146.422 91.443 C 146.752 91.317,146.833 91.381,146.675 91.644 C 146.524 91.896,146.628 91.880,146.976 91.599 C 147.371 91.278,152.656 89.225,152.656 89.392 C 152.656 89.407,153.078 89.254,153.594 89.051 C 154.329 88.763,157.720 87.776,160.469 87.050 C 160.641 87.005,161.133 86.823,161.563 86.646 C 161.992 86.470,162.594 86.371,162.899 86.427 C 163.204 86.484,163.372 86.397,163.271 86.234 C 163.170 86.071,163.343 85.913,163.653 85.884 C 164.454 85.808,165.130 85.703,165.313 85.625 C 165.398 85.588,165.961 85.518,166.563 85.469 C 167.164 85.420,167.656 85.354,167.656 85.322 C 167.656 85.291,167.867 85.221,168.125 85.169 C 168.383 85.116,169.156 84.920,169.844 84.735 C 170.531 84.549,171.623 84.332,172.269 84.253 C 172.915 84.174,173.944 83.944,174.555 83.742 C 175.166 83.540,175.938 83.447,176.271 83.534 C 176.623 83.626,176.796 83.563,176.685 83.383 C 176.580 83.213,176.756 83.107,177.075 83.148 C 177.395 83.188,177.890 83.119,178.176 82.994 C 178.462 82.869,179.130 82.835,179.660 82.918 C 180.191 83.002,180.625 82.958,180.625 82.822 C 180.625 82.685,181.034 82.605,181.534 82.644 C 182.034 82.683,183.264 82.603,184.268 82.465 C 185.272 82.327,187.922 82.123,190.156 82.010 C 192.391 81.898,194.279 81.750,194.353 81.681 C 194.548 81.497,208.518 81.808,211.094 82.052 M191.094 86.111 C 190.750 86.181,188.500 86.370,186.094 86.532 C 179.894 86.948,175.569 87.627,166.875 89.550 C 160.878 90.876,154.070 92.961,147.344 95.532 C 141.038 97.942,126.677 104.946,124.975 106.441 C 124.704 106.680,124.386 106.875,124.269 106.875 C 124.152 106.875,123.356 107.367,122.500 107.969 C 121.644 108.570,120.837 109.072,120.706 109.083 C 120.576 109.095,119.836 109.575,119.063 110.150 C 118.289 110.726,116.672 111.873,115.469 112.700 C 114.266 113.527,113.211 114.285,113.125 114.385 C 113.039 114.485,111.824 115.432,110.425 116.490 C 109.026 117.548,107.679 118.616,107.431 118.864 C 107.183 119.112,106.078 120.063,104.974 120.978 C 96.991 127.602,85.763 140.388,79.335 150.179 C 76.343 154.734,75.000 156.848,75.000 157.000 C 75.000 157.075,74.258 158.448,73.351 160.052 C 71.571 163.202,68.741 168.923,67.349 172.188 C 66.872 173.305,66.284 174.673,66.042 175.228 C 61.268 186.170,56.860 204.208,55.904 216.719 C 54.399 236.419,56.263 255.402,61.272 271.406 C 65.588 285.193,69.455 293.860,76.888 306.406 C 82.855 316.478,95.663 331.522,104.688 339.060 C 105.805 339.993,106.963 341.000,107.262 341.299 C 107.562 341.598,108.968 342.720,110.387 343.794 C 111.807 344.867,113.039 345.826,113.125 345.924 C 113.377 346.211,117.407 348.967,120.781 351.159 C 122.500 352.276,124.258 353.435,124.688 353.733 C 126.732 355.155,137.864 360.884,141.875 362.578 C 143.105 363.098,147.938 364.999,149.844 365.712 C 154.870 367.594,162.535 369.857,167.031 370.785 C 168.406 371.069,170.375 371.503,171.406 371.750 C 172.438 371.997,174.266 372.326,175.469 372.481 C 176.672 372.636,179.063 372.973,180.781 373.230 C 191.425 374.819,207.890 374.769,218.918 373.112 C 221.159 372.775,223.334 372.500,223.752 372.500 C 224.169 372.500,225.641 372.232,227.021 371.905 C 228.402 371.578,230.656 371.076,232.031 370.790 C 236.628 369.832,244.328 367.517,250.625 365.200 C 274.274 356.497,295.903 340.850,312.024 320.781 C 321.668 308.776,330.338 293.590,334.682 281.094 C 334.981 280.234,335.641 278.336,336.148 276.875 C 345.865 248.903,346.446 216.407,337.736 188.125 C 329.084 160.033,312.737 135.808,290.210 117.695 C 285.249 113.706,284.578 113.219,279.051 109.598 C 261.115 97.847,242.318 90.682,220.625 87.327 C 214.655 86.403,193.869 85.548,191.094 86.111 M328.201 108.633 C 328.417 108.826,329.122 109.553,329.767 110.248 L 330.941 111.511 329.689 112.582 C 329.001 113.172,328.438 113.816,328.438 114.014 C 328.438 114.213,328.238 114.375,327.993 114.375 C 327.749 114.375,327.053 114.954,326.447 115.662 C 324.378 118.079,324.390 118.079,322.141 115.724 C 321.050 114.581,319.418 112.880,318.516 111.944 C 316.427 109.779,316.354 110.066,319.908 106.498 L 322.940 103.454 325.374 105.868 C 326.713 107.195,327.985 108.439,328.201 108.633 M80.049 106.471 C 83.307 109.679,83.310 109.698,81.088 112.067 C 77.046 116.376,75.895 117.500,75.526 117.500 C 75.160 117.500,69.451 111.995,69.291 111.489 C 69.178 111.129,76.352 103.803,76.846 103.775 C 77.087 103.761,78.529 104.975,80.049 106.471 M210.781 104.239 C 212.328 104.485,215.000 104.890,216.719 105.140 C 221.156 105.783,223.523 106.213,226.563 106.927 C 228.023 107.270,230.203 107.754,231.405 108.002 C 233.711 108.478,235.173 108.904,236.719 109.551 C 237.234 109.767,238.711 110.247,240.000 110.618 C 241.289 110.988,242.702 111.483,243.139 111.719 C 243.576 111.954,245.346 112.633,247.073 113.227 C 248.799 113.821,250.480 114.469,250.809 114.667 C 251.137 114.866,252.382 115.419,253.574 115.896 C 256.954 117.249,257.072 116.426,252.129 125.938 C 249.562 130.876,248.606 134.488,249.688 135.156 C 249.859 135.262,250.000 135.601,250.000 135.910 C 250.000 136.832,251.815 138.449,253.383 138.925 C 257.723 140.242,260.890 138.436,263.595 133.102 C 263.894 132.513,264.321 131.820,264.544 131.563 C 264.768 131.305,265.337 130.320,265.809 129.375 C 267.777 125.437,268.784 124.572,270.266 125.547 C 270.723 125.848,271.329 126.234,271.614 126.406 C 272.795 127.120,277.454 130.817,279.876 132.962 C 280.753 133.739,281.527 134.375,281.596 134.375 C 281.776 134.375,286.657 138.890,288.883 141.116 C 291.249 143.481,297.018 149.873,297.883 151.088 C 298.008 151.263,298.540 151.898,299.065 152.500 C 299.590 153.102,300.402 154.156,300.869 154.844 C 301.336 155.531,301.930 156.329,302.188 156.618 C 302.445 156.906,303.141 157.943,303.734 158.923 L 304.813 160.705 304.140 161.212 C 302.331 162.574,301.641 163.041,300.157 163.906 C 291.534 168.935,290.313 170.115,290.313 173.419 C 290.313 175.894,290.638 176.816,292.062 178.367 L 293.419 179.844 296.162 179.844 C 298.999 179.844,299.904 179.563,303.906 177.443 C 304.594 177.079,306.492 176.085,308.125 175.234 C 309.758 174.383,311.252 173.558,311.445 173.401 C 312.213 172.774,312.805 173.468,313.741 176.094 C 313.925 176.609,314.205 177.313,314.363 177.656 C 315.363 179.828,316.563 182.818,316.563 183.138 C 316.563 183.474,317.800 186.585,318.423 187.816 C 318.555 188.076,318.905 189.131,319.202 190.160 C 319.499 191.189,319.926 192.453,320.152 192.969 C 320.690 194.200,321.184 196.089,321.866 199.531 C 322.172 201.078,322.518 202.570,322.634 202.847 C 323.085 203.920,324.115 210.086,324.689 215.156 C 325.020 218.078,325.380 221.031,325.489 221.719 L 325.686 222.969 318.703 222.969 C 307.492 222.969,305.313 224.063,305.313 229.688 C 305.313 235.280,307.886 236.563,319.105 236.563 C 322.863 236.563,325.938 236.646,325.938 236.749 C 325.938 236.851,325.734 237.660,325.485 238.546 C 325.237 239.431,324.876 242.055,324.684 244.375 C 324.491 246.695,324.211 249.016,324.060 249.531 C 323.769 250.529,322.803 255.306,322.007 259.688 C 321.742 261.148,321.406 262.625,321.260 262.969 C 320.937 263.730,320.175 266.025,319.341 268.750 C 318.999 269.867,318.601 271.063,318.457 271.406 C 316.947 275.009,316.597 275.889,316.406 276.563 C 316.180 277.362,315.055 280.096,314.018 282.364 C 313.699 283.063,313.437 283.815,313.437 284.035 C 313.437 284.919,312.177 286.247,311.625 285.945 C 311.333 285.785,310.109 285.171,308.906 284.580 C 305.320 282.818,302.042 281.106,301.875 280.909 C 301.293 280.220,298.347 279.531,295.981 279.531 L 293.369 279.531 292.015 281.027 C 290.304 282.914,289.530 288.229,290.898 288.685 C 291.092 288.749,291.250 288.997,291.250 289.235 C 291.250 289.844,294.086 291.868,298.705 294.554 C 300.878 295.817,303.133 297.251,303.717 297.739 L 304.777 298.626 303.922 300.172 C 303.452 301.023,302.754 302.070,302.372 302.500 C 301.989 302.930,301.457 303.633,301.190 304.063 C 300.767 304.741,297.877 308.288,296.224 310.156 C 295.920 310.500,294.428 312.189,292.909 313.911 C 289.925 317.291,281.741 325.313,281.276 325.313 C 281.175 325.313,280.428 325.910,279.615 326.641 C 276.611 329.341,275.186 330.486,273.955 331.188 C 273.261 331.583,272.501 332.181,272.266 332.516 C 272.032 332.851,271.656 333.125,271.431 333.125 C 271.206 333.125,270.664 333.406,270.227 333.750 C 269.790 334.094,269.220 334.375,268.961 334.375 C 268.524 334.375,265.938 330.881,265.938 330.291 C 265.938 328.741,260.393 321.399,258.611 320.589 C 255.515 319.183,250.000 321.206,250.000 323.749 C 250.000 324.073,249.859 324.425,249.688 324.531 C 248.908 325.013,249.867 329.391,251.227 331.563 C 251.388 331.820,251.970 332.945,252.520 334.063 C 253.953 336.974,254.794 338.517,255.516 339.558 C 256.871 341.510,256.542 342.327,254.063 343.159 C 253.461 343.361,252.691 343.717,252.352 343.951 C 252.013 344.184,251.505 344.375,251.223 344.375 C 250.940 344.375,250.374 344.636,249.964 344.955 C 249.554 345.273,248.656 345.712,247.969 345.930 C 247.281 346.147,246.585 346.449,246.422 346.600 C 246.259 346.751,245.933 346.875,245.699 346.875 C 245.464 346.875,244.502 347.227,243.561 347.658 C 242.620 348.088,241.188 348.586,240.378 348.764 C 239.569 348.942,237.500 349.563,235.781 350.144 C 234.063 350.725,232.094 351.284,231.406 351.387 C 229.189 351.718,223.802 352.987,222.656 353.448 C 222.313 353.586,220.063 353.863,217.656 354.064 C 215.250 354.264,211.893 354.704,210.196 355.040 C 208.499 355.377,207.037 355.578,206.946 355.487 C 206.855 355.397,206.807 352.613,206.838 349.302 C 206.895 343.356,206.555 338.839,206.024 338.471 C 205.874 338.366,205.441 337.836,205.061 337.293 C 202.913 334.216,198.293 333.957,195.417 336.753 C 193.339 338.773,193.299 338.963,193.125 347.656 C 192.973 355.241,192.951 355.467,192.344 355.392 C 192.000 355.349,190.172 355.105,188.281 354.848 C 186.391 354.592,183.227 354.180,181.250 353.931 C 177.916 353.513,176.998 353.337,173.828 352.505 C 173.184 352.336,171.531 351.971,170.156 351.695 C 165.884 350.835,151.530 346.090,150.313 345.134 C 150.055 344.932,149.303 344.593,148.642 344.380 C 147.981 344.168,147.066 343.799,146.610 343.561 C 146.154 343.324,145.616 343.128,145.415 343.127 C 145.213 343.126,144.625 342.769,144.109 342.335 L 143.170 341.545 145.112 338.343 C 146.180 336.582,147.249 334.652,147.487 334.055 C 147.726 333.458,148.178 332.595,148.492 332.139 C 148.806 331.683,149.063 331.177,149.063 331.015 C 149.063 330.853,149.279 330.287,149.543 329.757 C 153.513 321.800,143.620 316.289,138.178 323.426 C 136.542 325.572,136.011 326.431,133.925 330.313 C 133.325 331.430,132.433 332.816,131.944 333.394 L 131.053 334.444 129.468 333.641 C 128.595 333.199,127.690 332.649,127.456 332.418 C 127.223 332.188,126.227 331.408,125.244 330.685 C 124.261 329.961,123.206 329.114,122.900 328.801 C 122.594 328.488,121.430 327.502,120.313 326.610 C 115.052 322.407,108.455 315.871,104.006 310.456 C 103.436 309.761,102.511 308.707,101.952 308.112 C 101.393 307.518,100.856 306.785,100.759 306.484 C 100.662 306.184,100.469 305.938,100.329 305.938 C 100.189 305.938,99.467 305.129,98.724 304.141 C 97.981 303.152,97.191 302.158,96.968 301.931 C 96.745 301.704,96.562 301.374,96.563 301.199 C 96.563 301.023,96.281 300.522,95.938 300.085 C 95.140 299.071,95.140 298.222,95.938 297.969 C 96.281 297.860,96.563 297.654,96.563 297.512 C 96.563 297.277,99.544 295.466,103.125 293.525 C 108.589 290.563,110.336 287.721,109.250 283.562 C 108.004 278.790,103.635 278.047,96.998 281.478 C 95.079 282.470,92.192 283.940,90.583 284.746 L 87.656 286.211 87.116 285.527 C 86.819 285.151,86.573 284.598,86.569 284.297 C 86.566 283.996,86.439 283.750,86.289 283.750 C 86.139 283.750,85.928 283.311,85.820 282.773 C 85.647 281.906,84.845 279.841,83.592 277.031 C 83.362 276.516,82.941 275.357,82.656 274.457 C 82.372 273.556,82.024 272.748,81.883 272.661 C 81.741 272.573,81.452 271.763,81.240 270.860 C 81.029 269.957,80.750 269.078,80.620 268.906 C 80.491 268.734,80.280 268.104,80.151 267.505 C 80.023 266.906,79.741 266.132,79.524 265.786 C 79.137 265.167,78.166 261.093,77.348 256.658 C 77.120 255.421,76.838 254.256,76.722 254.069 C 76.463 253.648,75.748 248.981,74.832 241.719 C 74.594 239.828,74.306 237.895,74.194 237.422 L 73.990 236.563 80.198 236.556 C 92.562 236.544,94.510 235.565,94.492 229.375 C 94.475 223.963,91.945 222.835,79.784 222.819 C 73.990 222.812,73.843 222.767,74.337 221.170 C 74.509 220.612,74.795 218.820,74.972 217.188 C 75.534 211.994,76.264 207.081,76.714 205.469 C 76.953 204.609,77.247 203.344,77.365 202.656 C 77.851 199.844,79.354 193.683,79.639 193.338 C 79.807 193.135,80.047 192.419,80.172 191.748 C 80.298 191.076,80.591 190.162,80.823 189.717 C 81.056 189.271,81.248 188.695,81.251 188.438 C 81.254 188.180,81.602 187.266,82.024 186.406 C 82.447 185.547,82.802 184.633,82.813 184.375 C 82.825 184.117,83.105 183.344,83.438 182.656 C 83.770 181.969,84.046 181.168,84.052 180.878 C 84.058 180.587,84.186 180.273,84.337 180.180 C 84.487 180.087,84.925 179.200,85.310 178.208 C 85.694 177.217,86.204 175.963,86.442 175.422 C 86.680 174.880,86.875 174.299,86.875 174.132 C 86.875 172.949,87.820 173.167,91.779 175.262 C 103.235 181.323,106.865 181.624,108.944 176.686 C 111.047 171.694,109.231 169.239,99.376 163.748 C 98.087 163.030,96.962 162.336,96.876 162.205 C 96.789 162.075,96.402 161.802,96.016 161.598 C 94.974 161.050,95.588 159.005,97.431 156.881 C 97.658 156.620,99.067 154.875,100.562 153.003 C 104.161 148.498,104.951 147.542,106.250 146.119 C 107.809 144.411,115.087 137.248,116.652 135.881 C 120.716 132.332,124.179 129.426,125.130 128.768 C 125.488 128.520,125.852 128.219,125.938 128.100 C 126.023 127.980,127.148 127.164,128.438 126.287 L 130.781 124.691 131.820 125.936 C 132.391 126.620,133.210 127.849,133.639 128.668 C 134.069 129.487,134.739 130.648,135.129 131.250 C 135.518 131.852,136.433 133.284,137.161 134.433 C 139.972 138.869,142.638 140.072,146.735 138.755 C 150.609 137.510,151.493 131.617,148.468 127.200 C 148.169 126.763,147.676 125.736,147.372 124.916 C 147.068 124.097,146.651 123.253,146.445 123.041 C 146.239 122.829,145.674 121.883,145.188 120.938 C 144.702 119.992,144.081 118.964,143.806 118.654 C 142.954 117.688,143.423 117.224,146.719 115.778 C 147.750 115.325,149.156 114.698,149.844 114.384 C 151.828 113.478,155.965 111.833,157.500 111.341 C 158.273 111.093,159.820 110.611,160.938 110.270 C 162.055 109.928,163.250 109.537,163.594 109.399 C 164.875 108.887,166.463 108.464,168.385 108.125 C 169.473 107.933,170.669 107.658,171.041 107.514 C 174.916 106.018,191.779 103.530,192.586 104.335 C 192.857 104.606,193.017 106.923,193.134 112.280 C 193.234 116.820,193.440 120.156,193.650 120.625 C 194.901 123.418,199.733 125.010,203.157 123.757 C 204.274 123.348,204.493 123.110,205.673 121.008 C 206.478 119.574,207.002 113.704,206.794 108.438 C 206.583 103.105,206.199 103.509,210.781 104.239 M213.147 179.411 C 209.094 180.634,210.116 178.446,194.984 218.300 C 174.168 273.125,174.688 271.721,174.688 273.173 C 174.688 279.952,184.918 283.207,190.061 278.064 C 191.507 276.618,190.825 278.251,199.363 255.781 C 203.281 245.469,210.582 226.261,215.587 213.097 C 225.570 186.841,225.463 187.206,224.097 184.198 C 222.298 180.238,217.443 178.115,213.147 179.411 M158.281 197.299 C 157.594 197.529,151.547 200.357,144.844 203.585 C 138.141 206.812,127.523 211.910,121.250 214.914 C 100.643 224.780,100.632 224.788,100.627 230.432 C 100.621 236.261,99.276 235.358,129.531 249.854 C 139.844 254.795,150.428 259.866,153.051 261.123 C 155.755 262.418,158.633 263.568,159.698 263.777 C 167.948 265.400,173.597 256.603,168.176 250.574 C 166.485 248.693,166.856 248.883,146.377 239.425 C 137.455 235.306,129.449 231.604,128.585 231.199 L 127.015 230.463 139.835 224.540 C 162.837 213.914,165.643 212.561,167.048 211.410 C 174.533 205.275,167.634 194.169,158.281 197.299 M235.224 197.306 C 228.484 199.816,227.735 207.985,233.864 212.147 C 234.575 212.630,242.047 216.199,250.469 220.080 C 258.891 223.961,267.386 227.889,269.348 228.810 L 272.915 230.485 270.598 231.550 C 269.324 232.135,266.805 233.307,265.000 234.155 C 263.195 235.003,255.602 238.508,248.125 241.944 C 234.564 248.177,233.344 248.824,231.565 250.716 C 228.066 254.440,229.572 260.964,234.425 263.110 C 238.081 264.727,240.293 264.314,248.058 260.565 C 251.275 259.011,255.031 257.210,256.406 256.561 C 257.781 255.912,261.156 254.295,263.906 252.969 C 266.656 251.642,270.172 249.954,271.719 249.218 C 299.921 235.796,299.231 236.267,299.207 230.469 C 299.182 224.359,300.197 225.014,264.844 208.273 C 263.297 207.540,259.219 205.578,255.781 203.913 C 240.327 196.424,238.859 195.952,235.224 197.306 " stroke="none" fill="#000000" fill-rule="evenodd"></path></g></svg>